%TF.GenerationSoftware,KiCad,Pcbnew,5.1.7-a382d34a8~88~ubuntu18.04.1*%
%TF.CreationDate,2021-01-07T11:27:00-05:00*%
%TF.ProjectId,DJI_to_xt30,444a495f-746f-45f7-9874-33302e6b6963,rev?*%
%TF.SameCoordinates,Original*%
%TF.FileFunction,Copper,L1,Top*%
%TF.FilePolarity,Positive*%
%FSLAX46Y46*%
G04 Gerber Fmt 4.6, Leading zero omitted, Abs format (unit mm)*
G04 Created by KiCad (PCBNEW 5.1.7-a382d34a8~88~ubuntu18.04.1) date 2021-01-07 11:27:00*
%MOMM*%
%LPD*%
G01*
G04 APERTURE LIST*
%TA.AperFunction,SMDPad,CuDef*%
%ADD10R,1.500000X1.500000*%
%TD*%
%TA.AperFunction,ComponentPad*%
%ADD11C,4.500000*%
%TD*%
%TA.AperFunction,ComponentPad*%
%ADD12O,1.700000X1.950000*%
%TD*%
%TA.AperFunction,Conductor*%
%ADD13C,0.250000*%
%TD*%
%TA.AperFunction,Conductor*%
%ADD14C,0.254000*%
%TD*%
%TA.AperFunction,Conductor*%
%ADD15C,0.100000*%
%TD*%
G04 APERTURE END LIST*
D10*
%TO.P,TP2,1*%
%TO.N,Net-(J1-Pad1)*%
X21290000Y-10840000D03*
%TD*%
%TO.P,TP1,1*%
%TO.N,Net-(J1-Pad10)*%
X31510000Y-10670000D03*
%TD*%
D11*
%TO.P,J2,1*%
%TO.N,GND*%
X23890000Y-14570000D03*
%TO.P,J2,2*%
%TO.N,+BATT*%
X28890000Y-14570000D03*
%TD*%
D12*
%TO.P,J1,10*%
%TO.N,Net-(J1-Pad10)*%
X37660500Y-6020000D03*
%TO.P,J1,9*%
%TO.N,GND*%
X35160500Y-6020000D03*
%TO.P,J1,8*%
X32660500Y-6020000D03*
%TO.P,J1,7*%
%TO.N,+BATT*%
X30160500Y-6020000D03*
%TO.P,J1,6*%
X27660500Y-6020000D03*
%TO.P,J1,5*%
X25160500Y-6020000D03*
%TO.P,J1,4*%
X22660500Y-6020000D03*
%TO.P,J1,3*%
%TO.N,GND*%
X20160500Y-6020000D03*
%TO.P,J1,2*%
X17660500Y-6020000D03*
%TO.P,J1,1*%
%TO.N,Net-(J1-Pad1)*%
%TA.AperFunction,ComponentPad*%
G36*
G01*
X14310500Y-6745000D02*
X14310500Y-5295000D01*
G75*
G02*
X14560500Y-5045000I250000J0D01*
G01*
X15760500Y-5045000D01*
G75*
G02*
X16010500Y-5295000I0J-250000D01*
G01*
X16010500Y-6745000D01*
G75*
G02*
X15760500Y-6995000I-250000J0D01*
G01*
X14560500Y-6995000D01*
G75*
G02*
X14310500Y-6745000I0J250000D01*
G01*
G37*
%TD.AperFunction*%
%TD*%
D13*
%TO.N,Net-(J1-Pad10)*%
X31510000Y-10670000D02*
X32760000Y-9420000D01*
X32760000Y-9420000D02*
X36160000Y-9420000D01*
X37660500Y-7919500D02*
X37660500Y-6020000D01*
X36160000Y-9420000D02*
X37660500Y-7919500D01*
%TO.N,Net-(J1-Pad1)*%
X15160500Y-6020000D02*
X15160500Y-7920500D01*
X15160500Y-7920500D02*
X16630000Y-9390000D01*
X16630000Y-9390000D02*
X21010000Y-9390000D01*
X21290000Y-9670000D02*
X21290000Y-10840000D01*
X21010000Y-9390000D02*
X21290000Y-9670000D01*
%TD*%
D14*
%TO.N,+BATT*%
X52140001Y-9340000D02*
X37314802Y-9340000D01*
X38171509Y-8483294D01*
X38200501Y-8459501D01*
X38224295Y-8430508D01*
X38224299Y-8430504D01*
X38295473Y-8343777D01*
X38295474Y-8343776D01*
X38366046Y-8211747D01*
X38409503Y-8068486D01*
X38420500Y-7956833D01*
X38420500Y-7956824D01*
X38424176Y-7919501D01*
X38420500Y-7882178D01*
X38420500Y-7422595D01*
X38489514Y-7385706D01*
X38715634Y-7200134D01*
X38901206Y-6974014D01*
X39039099Y-6716033D01*
X39124013Y-6436110D01*
X39145500Y-6217949D01*
X39145500Y-5822050D01*
X39124013Y-5603889D01*
X39039099Y-5323966D01*
X38901206Y-5065986D01*
X38715634Y-4839866D01*
X38642531Y-4779872D01*
X46865000Y-4779872D01*
X46865000Y-5220128D01*
X46950890Y-5651925D01*
X47119369Y-6058669D01*
X47363962Y-6424729D01*
X47675271Y-6736038D01*
X48041331Y-6980631D01*
X48448075Y-7149110D01*
X48879872Y-7235000D01*
X49320128Y-7235000D01*
X49751925Y-7149110D01*
X50158669Y-6980631D01*
X50524729Y-6736038D01*
X50836038Y-6424729D01*
X51080631Y-6058669D01*
X51249110Y-5651925D01*
X51335000Y-5220128D01*
X51335000Y-4779872D01*
X51249110Y-4348075D01*
X51080631Y-3941331D01*
X50836038Y-3575271D01*
X50524729Y-3263962D01*
X50158669Y-3019369D01*
X49751925Y-2850890D01*
X49320128Y-2765000D01*
X48879872Y-2765000D01*
X48448075Y-2850890D01*
X48041331Y-3019369D01*
X47675271Y-3263962D01*
X47363962Y-3575271D01*
X47119369Y-3941331D01*
X46950890Y-4348075D01*
X46865000Y-4779872D01*
X38642531Y-4779872D01*
X38489513Y-4654294D01*
X38231533Y-4516401D01*
X37951610Y-4431487D01*
X37660500Y-4402815D01*
X37369389Y-4431487D01*
X37089466Y-4516401D01*
X36831486Y-4654294D01*
X36605366Y-4839866D01*
X36419794Y-5065987D01*
X36410500Y-5083374D01*
X36401206Y-5065986D01*
X36215634Y-4839866D01*
X35989513Y-4654294D01*
X35731533Y-4516401D01*
X35451610Y-4431487D01*
X35160500Y-4402815D01*
X34869389Y-4431487D01*
X34589466Y-4516401D01*
X34331486Y-4654294D01*
X34105366Y-4839866D01*
X33919794Y-5065987D01*
X33910500Y-5083374D01*
X33901206Y-5065986D01*
X33715634Y-4839866D01*
X33489513Y-4654294D01*
X33231533Y-4516401D01*
X32951610Y-4431487D01*
X32660500Y-4402815D01*
X32369389Y-4431487D01*
X32089466Y-4516401D01*
X31831486Y-4654294D01*
X31605366Y-4839866D01*
X31419794Y-5065987D01*
X31281901Y-5323967D01*
X31196987Y-5603890D01*
X31175500Y-5822051D01*
X31175500Y-6217950D01*
X31196987Y-6436111D01*
X31281901Y-6716034D01*
X31419794Y-6974014D01*
X31605366Y-7200134D01*
X31831487Y-7385706D01*
X32089467Y-7523599D01*
X32369390Y-7608513D01*
X32660500Y-7637185D01*
X32951611Y-7608513D01*
X33231534Y-7523599D01*
X33489514Y-7385706D01*
X33715634Y-7200134D01*
X33901206Y-6974014D01*
X33910500Y-6956626D01*
X33919794Y-6974014D01*
X34105366Y-7200134D01*
X34331487Y-7385706D01*
X34589467Y-7523599D01*
X34869390Y-7608513D01*
X35160500Y-7637185D01*
X35451611Y-7608513D01*
X35731534Y-7523599D01*
X35989514Y-7385706D01*
X36215634Y-7200134D01*
X36401206Y-6974014D01*
X36410500Y-6956626D01*
X36419794Y-6974014D01*
X36605366Y-7200134D01*
X36831487Y-7385706D01*
X36900500Y-7422594D01*
X36900500Y-7604697D01*
X35845199Y-8660000D01*
X32797323Y-8660000D01*
X32760000Y-8656324D01*
X32722677Y-8660000D01*
X32722667Y-8660000D01*
X32611014Y-8670997D01*
X32467753Y-8714454D01*
X32335723Y-8785026D01*
X32285552Y-8826201D01*
X32219999Y-8879999D01*
X32196201Y-8908997D01*
X31823270Y-9281928D01*
X30760000Y-9281928D01*
X30635518Y-9294188D01*
X30515820Y-9330498D01*
X30405506Y-9389463D01*
X30308815Y-9468815D01*
X30229463Y-9565506D01*
X30170498Y-9675820D01*
X30134188Y-9795518D01*
X30121928Y-9920000D01*
X30121928Y-11420000D01*
X30134188Y-11544482D01*
X30170498Y-11664180D01*
X30229463Y-11774494D01*
X30308815Y-11871185D01*
X30405506Y-11950537D01*
X30515820Y-12009502D01*
X30635518Y-12045812D01*
X30760000Y-12058072D01*
X32140000Y-12058072D01*
X32140001Y-17900000D01*
X20660000Y-17900000D01*
X20660000Y-12228072D01*
X22040000Y-12228072D01*
X22164482Y-12215812D01*
X22266946Y-12184730D01*
X22050920Y-12329074D01*
X21649074Y-12730920D01*
X21333346Y-13203440D01*
X21115869Y-13728477D01*
X21005000Y-14285852D01*
X21005000Y-14854148D01*
X21115869Y-15411523D01*
X21333346Y-15936560D01*
X21649074Y-16409080D01*
X22050920Y-16810926D01*
X22523440Y-17126654D01*
X23048477Y-17344131D01*
X23605852Y-17455000D01*
X24174148Y-17455000D01*
X24731523Y-17344131D01*
X25256560Y-17126654D01*
X25729080Y-16810926D01*
X26130926Y-16409080D01*
X26446654Y-15936560D01*
X26664131Y-15411523D01*
X26775000Y-14854148D01*
X26775000Y-14285852D01*
X26664131Y-13728477D01*
X26446654Y-13203440D01*
X26130926Y-12730920D01*
X25729080Y-12329074D01*
X25256560Y-12013346D01*
X24731523Y-11795869D01*
X24174148Y-11685000D01*
X23605852Y-11685000D01*
X23048477Y-11795869D01*
X22523440Y-12013346D01*
X22502609Y-12027265D01*
X22570537Y-11944494D01*
X22629502Y-11834180D01*
X22665812Y-11714482D01*
X22678072Y-11590000D01*
X22678072Y-10090000D01*
X22665812Y-9965518D01*
X22629502Y-9845820D01*
X22570537Y-9735506D01*
X22491185Y-9638815D01*
X22394494Y-9559463D01*
X22284180Y-9500498D01*
X22164482Y-9464188D01*
X22040000Y-9451928D01*
X22018046Y-9451928D01*
X21995546Y-9377753D01*
X21924974Y-9245724D01*
X21830001Y-9129999D01*
X21800998Y-9106197D01*
X21573804Y-8879003D01*
X21550001Y-8849999D01*
X21434276Y-8755026D01*
X21302247Y-8684454D01*
X21158986Y-8640997D01*
X21047333Y-8630000D01*
X21047322Y-8630000D01*
X21010000Y-8626324D01*
X20972678Y-8630000D01*
X16944802Y-8630000D01*
X15931073Y-7616272D01*
X15933754Y-7616008D01*
X16100350Y-7565472D01*
X16253886Y-7483405D01*
X16388462Y-7372962D01*
X16498905Y-7238386D01*
X16553277Y-7136663D01*
X16605366Y-7200134D01*
X16831487Y-7385706D01*
X17089467Y-7523599D01*
X17369390Y-7608513D01*
X17660500Y-7637185D01*
X17951611Y-7608513D01*
X18231534Y-7523599D01*
X18489514Y-7385706D01*
X18715634Y-7200134D01*
X18901206Y-6974014D01*
X18910500Y-6956626D01*
X18919794Y-6974014D01*
X19105366Y-7200134D01*
X19331487Y-7385706D01*
X19589467Y-7523599D01*
X19869390Y-7608513D01*
X20160500Y-7637185D01*
X20451611Y-7608513D01*
X20731534Y-7523599D01*
X20989514Y-7385706D01*
X21215634Y-7200134D01*
X21401206Y-6974014D01*
X21539099Y-6716033D01*
X21624013Y-6436110D01*
X21645500Y-6217949D01*
X21645500Y-5822050D01*
X21624013Y-5603889D01*
X21539099Y-5323966D01*
X21401206Y-5065986D01*
X21215634Y-4839866D01*
X20989513Y-4654294D01*
X20731533Y-4516401D01*
X20451610Y-4431487D01*
X20160500Y-4402815D01*
X19869389Y-4431487D01*
X19589466Y-4516401D01*
X19331486Y-4654294D01*
X19105366Y-4839866D01*
X18919794Y-5065987D01*
X18910500Y-5083374D01*
X18901206Y-5065986D01*
X18715634Y-4839866D01*
X18489513Y-4654294D01*
X18231533Y-4516401D01*
X17951610Y-4431487D01*
X17660500Y-4402815D01*
X17369389Y-4431487D01*
X17089466Y-4516401D01*
X16831486Y-4654294D01*
X16605366Y-4839866D01*
X16553277Y-4903337D01*
X16498905Y-4801614D01*
X16388462Y-4667038D01*
X16253886Y-4556595D01*
X16100350Y-4474528D01*
X15933754Y-4423992D01*
X15760500Y-4406928D01*
X14560500Y-4406928D01*
X14387246Y-4423992D01*
X14220650Y-4474528D01*
X14067114Y-4556595D01*
X13932538Y-4667038D01*
X13822095Y-4801614D01*
X13740028Y-4955150D01*
X13689492Y-5121746D01*
X13672428Y-5295000D01*
X13672428Y-6745000D01*
X13689492Y-6918254D01*
X13740028Y-7084850D01*
X13822095Y-7238386D01*
X13932538Y-7372962D01*
X14067114Y-7483405D01*
X14220650Y-7565472D01*
X14387246Y-7616008D01*
X14400501Y-7617313D01*
X14400501Y-7883168D01*
X14396824Y-7920500D01*
X14400501Y-7957833D01*
X14411400Y-8068485D01*
X14411498Y-8069485D01*
X14454954Y-8212746D01*
X14525526Y-8344776D01*
X14595882Y-8430504D01*
X14620500Y-8460501D01*
X14649498Y-8484299D01*
X15505198Y-9340000D01*
X660000Y-9340000D01*
X660000Y-4779872D01*
X1465000Y-4779872D01*
X1465000Y-5220128D01*
X1550890Y-5651925D01*
X1719369Y-6058669D01*
X1963962Y-6424729D01*
X2275271Y-6736038D01*
X2641331Y-6980631D01*
X3048075Y-7149110D01*
X3479872Y-7235000D01*
X3920128Y-7235000D01*
X4351925Y-7149110D01*
X4758669Y-6980631D01*
X5124729Y-6736038D01*
X5436038Y-6424729D01*
X5680631Y-6058669D01*
X5849110Y-5651925D01*
X5935000Y-5220128D01*
X5935000Y-4779872D01*
X5849110Y-4348075D01*
X5680631Y-3941331D01*
X5436038Y-3575271D01*
X5124729Y-3263962D01*
X4758669Y-3019369D01*
X4351925Y-2850890D01*
X3920128Y-2765000D01*
X3479872Y-2765000D01*
X3048075Y-2850890D01*
X2641331Y-3019369D01*
X2275271Y-3263962D01*
X1963962Y-3575271D01*
X1719369Y-3941331D01*
X1550890Y-4348075D01*
X1465000Y-4779872D01*
X660000Y-4779872D01*
X660000Y-660000D01*
X52140000Y-660000D01*
X52140001Y-9340000D01*
%TA.AperFunction,Conductor*%
D15*
G36*
X52140001Y-9340000D02*
G01*
X37314802Y-9340000D01*
X38171509Y-8483294D01*
X38200501Y-8459501D01*
X38224295Y-8430508D01*
X38224299Y-8430504D01*
X38295473Y-8343777D01*
X38295474Y-8343776D01*
X38366046Y-8211747D01*
X38409503Y-8068486D01*
X38420500Y-7956833D01*
X38420500Y-7956824D01*
X38424176Y-7919501D01*
X38420500Y-7882178D01*
X38420500Y-7422595D01*
X38489514Y-7385706D01*
X38715634Y-7200134D01*
X38901206Y-6974014D01*
X39039099Y-6716033D01*
X39124013Y-6436110D01*
X39145500Y-6217949D01*
X39145500Y-5822050D01*
X39124013Y-5603889D01*
X39039099Y-5323966D01*
X38901206Y-5065986D01*
X38715634Y-4839866D01*
X38642531Y-4779872D01*
X46865000Y-4779872D01*
X46865000Y-5220128D01*
X46950890Y-5651925D01*
X47119369Y-6058669D01*
X47363962Y-6424729D01*
X47675271Y-6736038D01*
X48041331Y-6980631D01*
X48448075Y-7149110D01*
X48879872Y-7235000D01*
X49320128Y-7235000D01*
X49751925Y-7149110D01*
X50158669Y-6980631D01*
X50524729Y-6736038D01*
X50836038Y-6424729D01*
X51080631Y-6058669D01*
X51249110Y-5651925D01*
X51335000Y-5220128D01*
X51335000Y-4779872D01*
X51249110Y-4348075D01*
X51080631Y-3941331D01*
X50836038Y-3575271D01*
X50524729Y-3263962D01*
X50158669Y-3019369D01*
X49751925Y-2850890D01*
X49320128Y-2765000D01*
X48879872Y-2765000D01*
X48448075Y-2850890D01*
X48041331Y-3019369D01*
X47675271Y-3263962D01*
X47363962Y-3575271D01*
X47119369Y-3941331D01*
X46950890Y-4348075D01*
X46865000Y-4779872D01*
X38642531Y-4779872D01*
X38489513Y-4654294D01*
X38231533Y-4516401D01*
X37951610Y-4431487D01*
X37660500Y-4402815D01*
X37369389Y-4431487D01*
X37089466Y-4516401D01*
X36831486Y-4654294D01*
X36605366Y-4839866D01*
X36419794Y-5065987D01*
X36410500Y-5083374D01*
X36401206Y-5065986D01*
X36215634Y-4839866D01*
X35989513Y-4654294D01*
X35731533Y-4516401D01*
X35451610Y-4431487D01*
X35160500Y-4402815D01*
X34869389Y-4431487D01*
X34589466Y-4516401D01*
X34331486Y-4654294D01*
X34105366Y-4839866D01*
X33919794Y-5065987D01*
X33910500Y-5083374D01*
X33901206Y-5065986D01*
X33715634Y-4839866D01*
X33489513Y-4654294D01*
X33231533Y-4516401D01*
X32951610Y-4431487D01*
X32660500Y-4402815D01*
X32369389Y-4431487D01*
X32089466Y-4516401D01*
X31831486Y-4654294D01*
X31605366Y-4839866D01*
X31419794Y-5065987D01*
X31281901Y-5323967D01*
X31196987Y-5603890D01*
X31175500Y-5822051D01*
X31175500Y-6217950D01*
X31196987Y-6436111D01*
X31281901Y-6716034D01*
X31419794Y-6974014D01*
X31605366Y-7200134D01*
X31831487Y-7385706D01*
X32089467Y-7523599D01*
X32369390Y-7608513D01*
X32660500Y-7637185D01*
X32951611Y-7608513D01*
X33231534Y-7523599D01*
X33489514Y-7385706D01*
X33715634Y-7200134D01*
X33901206Y-6974014D01*
X33910500Y-6956626D01*
X33919794Y-6974014D01*
X34105366Y-7200134D01*
X34331487Y-7385706D01*
X34589467Y-7523599D01*
X34869390Y-7608513D01*
X35160500Y-7637185D01*
X35451611Y-7608513D01*
X35731534Y-7523599D01*
X35989514Y-7385706D01*
X36215634Y-7200134D01*
X36401206Y-6974014D01*
X36410500Y-6956626D01*
X36419794Y-6974014D01*
X36605366Y-7200134D01*
X36831487Y-7385706D01*
X36900500Y-7422594D01*
X36900500Y-7604697D01*
X35845199Y-8660000D01*
X32797323Y-8660000D01*
X32760000Y-8656324D01*
X32722677Y-8660000D01*
X32722667Y-8660000D01*
X32611014Y-8670997D01*
X32467753Y-8714454D01*
X32335723Y-8785026D01*
X32285552Y-8826201D01*
X32219999Y-8879999D01*
X32196201Y-8908997D01*
X31823270Y-9281928D01*
X30760000Y-9281928D01*
X30635518Y-9294188D01*
X30515820Y-9330498D01*
X30405506Y-9389463D01*
X30308815Y-9468815D01*
X30229463Y-9565506D01*
X30170498Y-9675820D01*
X30134188Y-9795518D01*
X30121928Y-9920000D01*
X30121928Y-11420000D01*
X30134188Y-11544482D01*
X30170498Y-11664180D01*
X30229463Y-11774494D01*
X30308815Y-11871185D01*
X30405506Y-11950537D01*
X30515820Y-12009502D01*
X30635518Y-12045812D01*
X30760000Y-12058072D01*
X32140000Y-12058072D01*
X32140001Y-17900000D01*
X20660000Y-17900000D01*
X20660000Y-12228072D01*
X22040000Y-12228072D01*
X22164482Y-12215812D01*
X22266946Y-12184730D01*
X22050920Y-12329074D01*
X21649074Y-12730920D01*
X21333346Y-13203440D01*
X21115869Y-13728477D01*
X21005000Y-14285852D01*
X21005000Y-14854148D01*
X21115869Y-15411523D01*
X21333346Y-15936560D01*
X21649074Y-16409080D01*
X22050920Y-16810926D01*
X22523440Y-17126654D01*
X23048477Y-17344131D01*
X23605852Y-17455000D01*
X24174148Y-17455000D01*
X24731523Y-17344131D01*
X25256560Y-17126654D01*
X25729080Y-16810926D01*
X26130926Y-16409080D01*
X26446654Y-15936560D01*
X26664131Y-15411523D01*
X26775000Y-14854148D01*
X26775000Y-14285852D01*
X26664131Y-13728477D01*
X26446654Y-13203440D01*
X26130926Y-12730920D01*
X25729080Y-12329074D01*
X25256560Y-12013346D01*
X24731523Y-11795869D01*
X24174148Y-11685000D01*
X23605852Y-11685000D01*
X23048477Y-11795869D01*
X22523440Y-12013346D01*
X22502609Y-12027265D01*
X22570537Y-11944494D01*
X22629502Y-11834180D01*
X22665812Y-11714482D01*
X22678072Y-11590000D01*
X22678072Y-10090000D01*
X22665812Y-9965518D01*
X22629502Y-9845820D01*
X22570537Y-9735506D01*
X22491185Y-9638815D01*
X22394494Y-9559463D01*
X22284180Y-9500498D01*
X22164482Y-9464188D01*
X22040000Y-9451928D01*
X22018046Y-9451928D01*
X21995546Y-9377753D01*
X21924974Y-9245724D01*
X21830001Y-9129999D01*
X21800998Y-9106197D01*
X21573804Y-8879003D01*
X21550001Y-8849999D01*
X21434276Y-8755026D01*
X21302247Y-8684454D01*
X21158986Y-8640997D01*
X21047333Y-8630000D01*
X21047322Y-8630000D01*
X21010000Y-8626324D01*
X20972678Y-8630000D01*
X16944802Y-8630000D01*
X15931073Y-7616272D01*
X15933754Y-7616008D01*
X16100350Y-7565472D01*
X16253886Y-7483405D01*
X16388462Y-7372962D01*
X16498905Y-7238386D01*
X16553277Y-7136663D01*
X16605366Y-7200134D01*
X16831487Y-7385706D01*
X17089467Y-7523599D01*
X17369390Y-7608513D01*
X17660500Y-7637185D01*
X17951611Y-7608513D01*
X18231534Y-7523599D01*
X18489514Y-7385706D01*
X18715634Y-7200134D01*
X18901206Y-6974014D01*
X18910500Y-6956626D01*
X18919794Y-6974014D01*
X19105366Y-7200134D01*
X19331487Y-7385706D01*
X19589467Y-7523599D01*
X19869390Y-7608513D01*
X20160500Y-7637185D01*
X20451611Y-7608513D01*
X20731534Y-7523599D01*
X20989514Y-7385706D01*
X21215634Y-7200134D01*
X21401206Y-6974014D01*
X21539099Y-6716033D01*
X21624013Y-6436110D01*
X21645500Y-6217949D01*
X21645500Y-5822050D01*
X21624013Y-5603889D01*
X21539099Y-5323966D01*
X21401206Y-5065986D01*
X21215634Y-4839866D01*
X20989513Y-4654294D01*
X20731533Y-4516401D01*
X20451610Y-4431487D01*
X20160500Y-4402815D01*
X19869389Y-4431487D01*
X19589466Y-4516401D01*
X19331486Y-4654294D01*
X19105366Y-4839866D01*
X18919794Y-5065987D01*
X18910500Y-5083374D01*
X18901206Y-5065986D01*
X18715634Y-4839866D01*
X18489513Y-4654294D01*
X18231533Y-4516401D01*
X17951610Y-4431487D01*
X17660500Y-4402815D01*
X17369389Y-4431487D01*
X17089466Y-4516401D01*
X16831486Y-4654294D01*
X16605366Y-4839866D01*
X16553277Y-4903337D01*
X16498905Y-4801614D01*
X16388462Y-4667038D01*
X16253886Y-4556595D01*
X16100350Y-4474528D01*
X15933754Y-4423992D01*
X15760500Y-4406928D01*
X14560500Y-4406928D01*
X14387246Y-4423992D01*
X14220650Y-4474528D01*
X14067114Y-4556595D01*
X13932538Y-4667038D01*
X13822095Y-4801614D01*
X13740028Y-4955150D01*
X13689492Y-5121746D01*
X13672428Y-5295000D01*
X13672428Y-6745000D01*
X13689492Y-6918254D01*
X13740028Y-7084850D01*
X13822095Y-7238386D01*
X13932538Y-7372962D01*
X14067114Y-7483405D01*
X14220650Y-7565472D01*
X14387246Y-7616008D01*
X14400501Y-7617313D01*
X14400501Y-7883168D01*
X14396824Y-7920500D01*
X14400501Y-7957833D01*
X14411400Y-8068485D01*
X14411498Y-8069485D01*
X14454954Y-8212746D01*
X14525526Y-8344776D01*
X14595882Y-8430504D01*
X14620500Y-8460501D01*
X14649498Y-8484299D01*
X15505198Y-9340000D01*
X660000Y-9340000D01*
X660000Y-4779872D01*
X1465000Y-4779872D01*
X1465000Y-5220128D01*
X1550890Y-5651925D01*
X1719369Y-6058669D01*
X1963962Y-6424729D01*
X2275271Y-6736038D01*
X2641331Y-6980631D01*
X3048075Y-7149110D01*
X3479872Y-7235000D01*
X3920128Y-7235000D01*
X4351925Y-7149110D01*
X4758669Y-6980631D01*
X5124729Y-6736038D01*
X5436038Y-6424729D01*
X5680631Y-6058669D01*
X5849110Y-5651925D01*
X5935000Y-5220128D01*
X5935000Y-4779872D01*
X5849110Y-4348075D01*
X5680631Y-3941331D01*
X5436038Y-3575271D01*
X5124729Y-3263962D01*
X4758669Y-3019369D01*
X4351925Y-2850890D01*
X3920128Y-2765000D01*
X3479872Y-2765000D01*
X3048075Y-2850890D01*
X2641331Y-3019369D01*
X2275271Y-3263962D01*
X1963962Y-3575271D01*
X1719369Y-3941331D01*
X1550890Y-4348075D01*
X1465000Y-4779872D01*
X660000Y-4779872D01*
X660000Y-660000D01*
X52140000Y-660000D01*
X52140001Y-9340000D01*
G37*
%TD.AperFunction*%
%TD*%
M02*
