%TF.GenerationSoftware,KiCad,Pcbnew,5.1.7-a382d34a8~88~ubuntu18.04.1*%
%TF.CreationDate,2021-01-07T11:27:00-05:00*%
%TF.ProjectId,DJI_to_xt30,444a495f-746f-45f7-9874-33302e6b6963,rev?*%
%TF.SameCoordinates,Original*%
%TF.FileFunction,Legend,Top*%
%TF.FilePolarity,Positive*%
%FSLAX46Y46*%
G04 Gerber Fmt 4.6, Leading zero omitted, Abs format (unit mm)*
G04 Created by KiCad (PCBNEW 5.1.7-a382d34a8~88~ubuntu18.04.1) date 2021-01-07 11:27:00*
%MOMM*%
%LPD*%
G01*
G04 APERTURE LIST*
%ADD10C,0.120000*%
%ADD11C,0.150000*%
G04 APERTURE END LIST*
D10*
%TO.C,TP2*%
X20340000Y-9890000D02*
X22240000Y-9890000D01*
X22240000Y-9890000D02*
X22240000Y-11790000D01*
X22240000Y-11790000D02*
X20340000Y-11790000D01*
X20340000Y-11790000D02*
X20340000Y-9890000D01*
%TO.C,TP1*%
X30560000Y-9720000D02*
X32460000Y-9720000D01*
X32460000Y-9720000D02*
X32460000Y-11620000D01*
X32460000Y-11620000D02*
X30560000Y-11620000D01*
X30560000Y-11620000D02*
X30560000Y-9720000D01*
%TO.C,J1*%
X41400000Y-8520000D02*
X11400000Y-8520000D01*
X11400000Y-3520000D02*
X41400000Y-3520000D01*
X41400000Y-3520000D02*
X41400000Y-8520000D01*
X11400000Y-3520000D02*
X11400000Y-8520000D01*
%TO.C,TP2*%
D11*
X20028095Y-8644380D02*
X20599523Y-8644380D01*
X20313809Y-9644380D02*
X20313809Y-8644380D01*
X20932857Y-9644380D02*
X20932857Y-8644380D01*
X21313809Y-8644380D01*
X21409047Y-8692000D01*
X21456666Y-8739619D01*
X21504285Y-8834857D01*
X21504285Y-8977714D01*
X21456666Y-9072952D01*
X21409047Y-9120571D01*
X21313809Y-9168190D01*
X20932857Y-9168190D01*
X21885238Y-8739619D02*
X21932857Y-8692000D01*
X22028095Y-8644380D01*
X22266190Y-8644380D01*
X22361428Y-8692000D01*
X22409047Y-8739619D01*
X22456666Y-8834857D01*
X22456666Y-8930095D01*
X22409047Y-9072952D01*
X21837619Y-9644380D01*
X22456666Y-9644380D01*
%TO.C,TP1*%
X30248095Y-8474380D02*
X30819523Y-8474380D01*
X30533809Y-9474380D02*
X30533809Y-8474380D01*
X31152857Y-9474380D02*
X31152857Y-8474380D01*
X31533809Y-8474380D01*
X31629047Y-8522000D01*
X31676666Y-8569619D01*
X31724285Y-8664857D01*
X31724285Y-8807714D01*
X31676666Y-8902952D01*
X31629047Y-8950571D01*
X31533809Y-8998190D01*
X31152857Y-8998190D01*
X32676666Y-9474380D02*
X32105238Y-9474380D01*
X32390952Y-9474380D02*
X32390952Y-8474380D01*
X32295714Y-8617238D01*
X32200476Y-8712476D01*
X32105238Y-8760095D01*
%TD*%
M02*
